<svg height="512" viewBox="0 0 64 64" width="512" xmlns="http://www.w3.org/2000/svg"><g id="menu-arrow-direction-button-pointer"><path d="m57 62h-50a5.006 5.006 0 0 1 -5-5v-50a5.006 5.006 0 0 1 5-5h50a5.006 5.006 0 0 1 5 5v50a5.006 5.006 0 0 1 -5 5zm-50-58a3 3 0 0 0 -3 3v50a3 3 0 0 0 3 3h50a3 3 0 0 0 3-3v-50a3 3 0 0 0 -3-3z"/><path d="m47 36h-30a1 1 0 0 1 -1-1v-6a1 1 0 0 1 1-1h30a1 1 0 0 1 1 1v6a1 1 0 0 1 -1 1zm-29-2h28v-4h-28z"/><path d="m47 26h-30a1 1 0 0 1 -1-1v-6a1 1 0 0 1 1-1h30a1 1 0 0 1 1 1v6a1 1 0 0 1 -1 1zm-29-2h28v-4h-28z"/><path d="m47 46h-30a1 1 0 0 1 -1-1v-6a1 1 0 0 1 1-1h30a1 1 0 0 1 1 1v6a1 1 0 0 1 -1 1zm-29-2h28v-4h-28z"/></g></svg>